<svg width="650" height="650" viewBox="0 0 650 650" fill="none" xmlns="http://www.w3.org/2000/svg">
<circle cx="325" cy="325" r="325" fill="white"/>
<path d="M283.942 496.559L281.045 132.934L417.404 131.848C445.339 131.626 468.815 136.292 487.831 145.847C506.965 155.402 521.455 168.899 531.301 186.34C541.264 203.662 546.338 223.923 546.523 247.123C546.709 270.441 541.898 290.722 532.092 307.964C522.403 325.088 508.009 338.401 488.908 347.905C469.806 357.29 446.287 362.094 418.352 362.317L321.232 363.09L320.796 308.405L409.039 307.702C425.374 307.572 438.732 305.216 449.112 300.635C459.492 295.936 467.132 289.187 472.034 280.388C477.053 271.47 479.511 260.56 479.408 247.658C479.306 234.756 476.673 223.768 471.511 214.694C466.347 205.502 458.539 198.58 448.085 193.928C437.63 189.158 424.176 186.839 407.722 186.97L347.355 187.451L349.813 496.035L283.942 496.559ZM470.478 330.295L561.809 494.346L488.303 494.931L398.57 330.868L470.478 330.295Z" fill="black"/>
<path d="M173.178 499.214C92.8449 499.412 52.6066 470.344 52.4632 412.011C52.441 403.011 53.4173 393.342 55.3918 383.004L61.8008 345.988L151.801 345.767L148.841 362.274C147.528 370.611 146.883 379.112 146.904 387.779C146.925 396.445 149.109 403.607 153.457 409.263C160.144 417.58 171.154 421.719 186.487 421.682C201.821 421.644 214.144 417.447 223.457 409.091C233.103 400.733 239.898 385.383 243.843 363.04L284.274 131.44L373.774 131.22L332.36 369.823C324.803 414.175 308.216 446.882 282.601 467.945C256.986 488.675 220.511 499.098 173.178 499.214Z" fill="black"/>
<path d="M55.3918 383.004L65.2143 384.88L65.2305 384.795L65.2452 384.71L55.3918 383.004ZM61.8008 345.988L61.7762 335.988L53.3799 336.009L51.9474 344.282L61.8008 345.988ZM151.801 345.767L161.644 347.531L163.758 335.737L151.776 335.767L151.801 345.767ZM148.841 362.274L138.998 360.509L138.979 360.614L138.963 360.718L148.841 362.274ZM153.457 409.263L145.528 415.357L145.595 415.444L145.663 415.529L153.457 409.263ZM223.457 409.091L216.909 401.533L216.843 401.59L216.778 401.648L223.457 409.091ZM243.843 363.04L253.691 364.779L253.693 364.77L253.694 364.76L243.843 363.04ZM284.274 131.44L284.249 121.44L275.865 121.461L274.423 129.72L284.274 131.44ZM373.774 131.22L383.626 132.93L385.664 121.191L373.749 121.22L373.774 131.22ZM332.36 369.823L322.508 368.113L322.505 368.128L322.502 368.143L332.36 369.823ZM282.601 467.945L288.892 475.719L288.923 475.694L288.953 475.669L282.601 467.945ZM173.153 489.215C133.899 489.311 106.247 482.2 88.6053 469.456C71.5592 457.142 62.5286 438.589 62.4631 411.987L42.4632 412.036C42.5412 443.766 53.7015 468.914 76.8937 485.668C99.4905 501.992 132.124 509.315 173.203 509.214L173.153 489.215ZM62.4631 411.987C62.4428 403.721 63.3398 394.694 65.2143 384.88L45.5694 381.128C43.4947 391.99 42.4393 402.302 42.4632 412.036L62.4631 411.987ZM65.2452 384.71L71.6542 347.694L51.9474 344.282L45.5385 381.298L65.2452 384.71ZM61.8254 355.988L151.825 355.767L151.776 335.767L61.7762 335.988L61.8254 355.988ZM141.957 344.002L138.998 360.509L158.684 364.039L161.644 347.531L141.957 344.002ZM138.963 360.718C137.566 369.591 136.881 378.622 136.904 387.803L156.904 387.754C156.884 379.602 157.491 371.63 158.719 363.83L138.963 360.718ZM136.904 387.803C136.929 398.181 139.575 407.611 145.528 415.357L161.385 403.169C158.644 399.602 156.921 394.71 156.904 387.754L136.904 387.803ZM145.663 415.529C154.979 427.114 169.524 431.723 186.512 431.681L186.463 411.682C172.784 411.715 165.309 408.045 161.25 402.997L145.663 415.529ZM186.512 431.681C203.723 431.639 218.604 426.88 230.135 416.534L216.778 401.648C209.683 408.014 199.918 411.648 186.463 411.682L186.512 431.681ZM230.005 416.649C242.296 406 249.624 387.813 253.691 364.779L233.996 361.301C230.173 382.954 223.91 395.467 216.909 401.533L230.005 416.649ZM253.694 364.76L294.125 133.16L274.423 129.72L233.992 361.321L253.694 364.76ZM284.298 141.44L373.798 141.22L373.749 121.22L284.249 121.44L284.298 141.44ZM363.921 129.51L322.508 368.113L342.213 371.533L383.626 132.93L363.921 129.51ZM322.502 368.143C315.204 410.974 299.435 441.157 276.25 460.221L288.953 475.669C316.998 452.608 334.401 417.375 342.218 371.502L322.502 368.143ZM276.311 460.172C253.099 478.956 219.176 489.101 173.153 489.215L173.203 509.214C221.847 509.095 260.872 498.394 288.892 475.719L276.311 460.172Z" fill="white"/>
<path d="M282.5 114C282.5 92.6667 287.167 77.1667 296.5 67.5C305.833 57.5 320.667 52.5 341 52.5C369 52.5 383 64.8333 383 89.5C383 110.5 378.167 125.833 368.5 135.5C359.167 145.167 344.333 150 324 150C296.333 150 282.5 138 282.5 114Z" fill="black"/>
<path d="M296.5 67.5L303.694 74.446L303.753 74.385L303.811 74.3232L296.5 67.5ZM368.5 135.5L361.429 128.429L361.367 128.491L361.306 128.554L368.5 135.5ZM292.5 114C292.5 93.7955 296.97 81.4103 303.694 74.446L289.306 60.554C277.364 72.923 272.5 91.5378 272.5 114H292.5ZM303.811 74.3232C310.494 67.162 322.087 62.5 341 62.5V42.5C319.247 42.5 301.172 47.838 289.189 60.6768L303.811 74.3232ZM341 62.5C353.748 62.5 361.442 65.3351 365.89 69.2536C370.096 72.959 373 79.0603 373 89.5H393C393 75.273 388.904 62.8744 379.11 54.2464C369.558 45.8315 356.252 42.5 341 42.5V62.5ZM373 89.5C373 109.24 368.424 121.434 361.429 128.429L375.571 142.571C387.909 130.233 393 111.76 393 89.5H373ZM361.306 128.554C354.638 135.461 342.999 140 324 140V160C345.668 160 363.696 154.873 375.694 142.446L361.306 128.554ZM324 140C311.387 140 303.794 137.234 299.428 133.446C295.333 129.894 292.5 124.059 292.5 114H272.5C272.5 127.941 276.584 140.106 286.322 148.554C295.789 156.766 308.946 160 324 160V140Z" fill="white"/>
</svg>
